<?xml version="1.0" encoding="UTF-8" standalone="no"?><!DOCTYPE svg PUBLIC "-//W3C//DTD SVG 1.1//EN" "http://www.w3.org/Graphics/SVG/1.1/DTD/svg11.dtd"><svg width="128px" height="68px" version="1.1" xmlns="http://www.w3.org/2000/svg" xmlns:xlink="http://www.w3.org/1999/xlink" xml:space="preserve" xmlns:serif="http://www.serif.com/" style="fill-rule:evenodd;clip-rule:evenodd;stroke-linejoin:round;stroke-miterlimit:2;"><path d="M8.716,16.643l5.058,-15.572l3.801,0l-7.164,19.906l-3.349,0l-7.137,-19.906l3.787,0l5.004,15.572Z" style="fill:#8396ba;fill-rule:nonzero;"/><path d="M23.03,20.977l-3.322,0l0,-14.793l3.322,0l0,14.793Zm-3.527,-18.635c0,-0.51 0.162,-0.934 0.485,-1.271c0.324,-0.337 0.786,-0.506 1.388,-0.506c0.602,0 1.066,0.169 1.395,0.506c0.328,0.337 0.492,0.761 0.492,1.271c0,0.502 -0.164,0.919 -0.492,1.251c-0.329,0.333 -0.793,0.499 -1.395,0.499c-0.602,0 -1.064,-0.166 -1.388,-0.499c-0.323,-0.332 -0.485,-0.749 -0.485,-1.251Z" style="fill:#8396ba;fill-rule:nonzero;"/><path d="M29.73,6.184l0.095,1.709c0.52,-0.629 1.144,-1.116 1.873,-1.463c0.729,-0.346 1.541,-0.519 2.434,-0.519c0.711,0 1.356,0.098 1.934,0.294c0.579,0.196 1.074,0.512 1.484,0.95c0.41,0.437 0.727,1.007 0.95,1.709c0.223,0.702 0.335,1.554 0.335,2.557l0,9.556l-3.322,0l0,-9.584c0,-0.51 -0.057,-0.941 -0.171,-1.292c-0.114,-0.351 -0.28,-0.635 -0.499,-0.854c-0.219,-0.219 -0.49,-0.376 -0.814,-0.472c-0.323,-0.096 -0.695,-0.143 -1.114,-0.143c-0.683,0 -1.278,0.164 -1.784,0.492c-0.506,0.328 -0.909,0.77 -1.21,1.326l0,10.527l-3.322,0l0,-14.793l3.131,0Z" style="fill:#8396ba;fill-rule:nonzero;"/><path d="M48.296,18.598c0.401,0 0.777,-0.061 1.128,-0.184c0.351,-0.123 0.656,-0.296 0.916,-0.52c0.26,-0.223 0.469,-0.49 0.629,-0.8c0.159,-0.309 0.248,-0.647 0.266,-1.011l3.131,0c-0.027,0.711 -0.203,1.381 -0.526,2.009c-0.324,0.629 -0.757,1.179 -1.299,1.648c-0.542,0.469 -1.173,0.839 -1.893,1.107c-0.721,0.269 -1.491,0.404 -2.311,0.404c-1.139,0 -2.131,-0.196 -2.974,-0.588c-0.843,-0.392 -1.545,-0.925 -2.105,-1.6c-0.561,-0.674 -0.978,-1.463 -1.251,-2.365c-0.274,-0.902 -0.41,-1.859 -0.41,-2.871l0,-0.479c0,-1.011 0.136,-1.968 0.41,-2.871c0.273,-0.902 0.69,-1.693 1.251,-2.372c0.56,-0.679 1.26,-1.214 2.099,-1.606c0.838,-0.392 1.827,-0.588 2.966,-0.588c0.894,0 1.707,0.137 2.441,0.41c0.733,0.273 1.362,0.656 1.886,1.148c0.525,0.493 0.935,1.081 1.231,1.764c0.296,0.684 0.458,1.436 0.485,2.256l-3.131,0c-0.018,-0.392 -0.098,-0.766 -0.239,-1.121c-0.141,-0.356 -0.337,-0.665 -0.588,-0.93c-0.25,-0.264 -0.553,-0.474 -0.909,-0.629c-0.355,-0.155 -0.756,-0.232 -1.203,-0.232c-0.675,0 -1.231,0.139 -1.668,0.417c-0.438,0.278 -0.784,0.64 -1.039,1.087c-0.255,0.446 -0.431,0.957 -0.526,1.531c-0.096,0.574 -0.144,1.153 -0.144,1.736l0,0.479c0,0.601 0.048,1.187 0.144,1.757c0.095,0.569 0.271,1.078 0.526,1.524c0.255,0.447 0.599,0.807 1.032,1.08c0.433,0.274 0.991,0.41 1.675,0.41Z" style="fill:#8396ba;fill-rule:nonzero;"/><path d="M63.39,21.251c-1.094,0 -2.078,-0.183 -2.953,-0.547c-0.875,-0.365 -1.618,-0.866 -2.229,-1.504c-0.611,-0.638 -1.08,-1.395 -1.408,-2.27c-0.328,-0.875 -0.492,-1.818 -0.492,-2.83l0,-0.547c0,-1.166 0.173,-2.221 0.519,-3.165c0.347,-0.943 0.821,-1.745 1.422,-2.406c0.602,-0.661 1.31,-1.171 2.126,-1.531c0.816,-0.36 1.693,-0.54 2.632,-0.54c1.075,0 2.01,0.18 2.803,0.54c0.793,0.36 1.449,0.864 1.968,1.511c0.52,0.647 0.907,1.417 1.162,2.31c0.256,0.893 0.383,1.873 0.383,2.94l0,1.422l-9.666,0c0.046,0.574 0.167,1.102 0.363,1.585c0.196,0.484 0.462,0.901 0.799,1.251c0.338,0.351 0.736,0.627 1.197,0.828c0.46,0.2 0.982,0.3 1.565,0.3c0.82,0 1.534,-0.164 2.14,-0.492c0.606,-0.328 1.132,-0.779 1.579,-1.353l1.791,1.709c-0.237,0.355 -0.531,0.699 -0.882,1.032c-0.351,0.333 -0.761,0.629 -1.23,0.889c-0.47,0.259 -1.001,0.469 -1.593,0.628c-0.593,0.16 -1.258,0.24 -1.996,0.24Zm-0.397,-12.674c-0.911,0 -1.647,0.319 -2.208,0.957c-0.56,0.638 -0.918,1.527 -1.073,2.666l6.33,0l0,-0.246c-0.027,-0.438 -0.098,-0.859 -0.212,-1.265c-0.114,-0.405 -0.289,-0.765 -0.526,-1.08c-0.237,-0.314 -0.545,-0.565 -0.923,-0.752c-0.378,-0.187 -0.841,-0.28 -1.388,-0.28Z" style="fill:#8396ba;fill-rule:nonzero;"/><path d="M74.983,6.184l0.096,1.709c0.52,-0.629 1.144,-1.116 1.873,-1.463c0.729,-0.346 1.541,-0.519 2.434,-0.519c0.711,0 1.356,0.098 1.934,0.294c0.579,0.196 1.074,0.512 1.484,0.95c0.41,0.437 0.727,1.007 0.95,1.709c0.223,0.702 0.335,1.554 0.335,2.557l0,9.556l-3.322,0l0,-9.584c0,-0.51 -0.057,-0.941 -0.171,-1.292c-0.114,-0.351 -0.281,-0.635 -0.499,-0.854c-0.219,-0.219 -0.49,-0.376 -0.814,-0.472c-0.323,-0.096 -0.695,-0.143 -1.114,-0.143c-0.684,0 -1.278,0.164 -1.784,0.492c-0.506,0.328 -0.909,0.77 -1.21,1.326l0,10.527l-3.322,0l0,-14.793l3.13,0Z" style="fill:#8396ba;fill-rule:nonzero;"/><path d="M91.636,2.589l0,3.595l2.611,0l0,2.461l-2.611,0l0,8.258c0,0.337 0.036,0.611 0.109,0.82c0.073,0.21 0.178,0.372 0.315,0.486c0.136,0.114 0.298,0.191 0.485,0.232c0.187,0.041 0.394,0.062 0.622,0.062c0.228,0 0.449,-0.016 0.663,-0.048c0.214,-0.032 0.381,-0.062 0.499,-0.089l0,2.57c-0.264,0.073 -0.572,0.144 -0.923,0.212c-0.351,0.069 -0.772,0.103 -1.264,0.103c-0.547,0 -1.055,-0.073 -1.525,-0.219c-0.469,-0.146 -0.875,-0.383 -1.217,-0.711c-0.341,-0.328 -0.608,-0.756 -0.799,-1.285c-0.192,-0.529 -0.287,-1.176 -0.287,-1.942l0,-8.449l-2.434,0l0,-2.461l2.434,0l0,-3.595l3.322,0Z" style="fill:#8396ba;fill-rule:nonzero;"/><path d="M38.9,44.157l0,-19.906l6.823,0c1.075,0 2.041,0.107 2.898,0.321c0.857,0.214 1.581,0.54 2.174,0.978c0.592,0.437 1.046,0.995 1.36,1.674c0.315,0.679 0.472,1.484 0.472,2.413c0,0.912 -0.246,1.732 -0.738,2.461c-0.493,0.73 -1.213,1.295 -2.16,1.696c0.574,0.155 1.073,0.38 1.497,0.676c0.423,0.297 0.774,0.645 1.052,1.046c0.278,0.401 0.486,0.843 0.622,1.326c0.137,0.484 0.205,0.985 0.205,1.504c0,0.957 -0.157,1.798 -0.471,2.523c-0.315,0.724 -0.77,1.331 -1.367,1.818c-0.597,0.488 -1.322,0.855 -2.174,1.101c-0.852,0.246 -1.816,0.369 -2.892,0.369l-7.301,0Zm3.459,-8.982l0,6.22l3.842,0c0.565,0 1.064,-0.073 1.497,-0.219c0.433,-0.145 0.795,-0.353 1.087,-0.622c0.292,-0.268 0.511,-0.59 0.656,-0.963c0.146,-0.374 0.219,-0.789 0.219,-1.245c0,-0.984 -0.26,-1.759 -0.779,-2.324c-0.52,-0.565 -1.363,-0.847 -2.529,-0.847l-3.993,0Zm0,-2.543l3.391,0c1.076,0 1.916,-0.244 2.522,-0.732c0.607,-0.488 0.91,-1.178 0.91,-2.071c0,-0.985 -0.281,-1.695 -0.841,-2.133c-0.561,-0.437 -1.433,-0.656 -2.618,-0.656l-3.364,0l0,5.592Z" style="fill:#808080;fill-rule:nonzero;"/><path d="M63.988,32.399c-0.218,-0.036 -0.439,-0.064 -0.663,-0.082c-0.223,-0.018 -0.453,-0.027 -0.69,-0.027c-0.802,0 -1.454,0.155 -1.955,0.465c-0.502,0.31 -0.875,0.738 -1.121,1.285l0,10.117l-3.323,0l0,-14.793l3.172,0l0.082,1.654c0.374,-0.601 0.836,-1.073 1.388,-1.415c0.551,-0.342 1.201,-0.512 1.948,-0.512c0.192,0 0.408,0.02 0.65,0.061c0.241,0.041 0.417,0.084 0.526,0.13l-0.014,3.117Z" style="fill:#808080;fill-rule:nonzero;"/><path d="M72.342,44.43c-1.094,0 -2.078,-0.182 -2.953,-0.546c-0.875,-0.365 -1.618,-0.866 -2.229,-1.504c-0.611,-0.638 -1.08,-1.395 -1.408,-2.27c-0.328,-0.875 -0.492,-1.818 -0.492,-2.83l0,-0.547c0,-1.167 0.173,-2.222 0.519,-3.165c0.347,-0.943 0.821,-1.745 1.422,-2.406c0.602,-0.661 1.31,-1.171 2.126,-1.531c0.816,-0.36 1.693,-0.54 2.632,-0.54c1.076,0 2.01,0.18 2.803,0.54c0.793,0.36 1.449,0.863 1.968,1.51c0.52,0.647 0.907,1.418 1.163,2.311c0.255,0.893 0.382,1.873 0.382,2.939l0,1.422l-9.666,0c0.046,0.574 0.167,1.103 0.363,1.586c0.196,0.483 0.462,0.9 0.799,1.251c0.338,0.351 0.736,0.627 1.197,0.827c0.46,0.201 0.982,0.301 1.565,0.301c0.821,0 1.534,-0.164 2.14,-0.492c0.606,-0.328 1.132,-0.779 1.579,-1.354l1.791,1.709c-0.237,0.356 -0.531,0.7 -0.882,1.033c-0.351,0.332 -0.761,0.628 -1.23,0.888c-0.47,0.26 -1.001,0.47 -1.593,0.629c-0.593,0.16 -1.258,0.239 -1.996,0.239Zm-0.397,-12.673c-0.911,0 -1.647,0.319 -2.208,0.957c-0.56,0.638 -0.918,1.526 -1.073,2.666l6.33,0l0,-0.246c-0.027,-0.438 -0.098,-0.86 -0.212,-1.265c-0.114,-0.406 -0.289,-0.766 -0.526,-1.08c-0.237,-0.315 -0.545,-0.565 -0.923,-0.752c-0.378,-0.187 -0.841,-0.28 -1.388,-0.28Z" style="fill:#808080;fill-rule:nonzero;"/><path d="M83.977,29.364l0.095,1.545c0.492,-0.574 1.092,-1.021 1.798,-1.34c0.706,-0.319 1.529,-0.478 2.468,-0.478c0.902,0 1.709,0.18 2.42,0.54c0.711,0.36 1.258,0.936 1.64,1.729c0.493,-0.693 1.115,-1.244 1.867,-1.654c0.752,-0.41 1.643,-0.615 2.672,-0.615c0.766,0 1.45,0.102 2.051,0.307c0.602,0.205 1.11,0.529 1.525,0.971c0.414,0.442 0.733,1.009 0.957,1.702c0.223,0.693 0.335,1.527 0.335,2.502l0,9.584l-3.323,0l0,-9.598c0,-0.547 -0.061,-0.995 -0.184,-1.346c-0.123,-0.351 -0.301,-0.632 -0.533,-0.841c-0.233,-0.21 -0.511,-0.356 -0.834,-0.438c-0.324,-0.082 -0.691,-0.123 -1.101,-0.123c-0.756,0 -1.374,0.203 -1.852,0.609c-0.479,0.405 -0.814,0.936 -1.005,1.592l0.013,0.288l0,9.857l-3.322,0l0,-9.557c0,-0.519 -0.061,-0.957 -0.185,-1.312c-0.123,-0.356 -0.3,-0.643 -0.533,-0.862c-0.232,-0.218 -0.512,-0.375 -0.841,-0.471c-0.328,-0.096 -0.697,-0.144 -1.107,-0.144c-0.711,0 -1.297,0.146 -1.757,0.438c-0.46,0.291 -0.818,0.688 -1.073,1.189l0,10.719l-3.322,0l0,-14.793l3.131,0Z" style="fill:#808080;fill-rule:nonzero;"/><path d="M111.73,44.43c-1.093,0 -2.078,-0.182 -2.953,-0.546c-0.875,-0.365 -1.617,-0.866 -2.228,-1.504c-0.611,-0.638 -1.08,-1.395 -1.408,-2.27c-0.329,-0.875 -0.493,-1.818 -0.493,-2.83l0,-0.547c0,-1.167 0.174,-2.222 0.52,-3.165c0.346,-0.943 0.82,-1.745 1.422,-2.406c0.601,-0.661 1.31,-1.171 2.126,-1.531c0.816,-0.36 1.693,-0.54 2.632,-0.54c1.075,0 2.009,0.18 2.802,0.54c0.793,0.36 1.45,0.863 1.969,1.51c0.52,0.647 0.907,1.418 1.162,2.311c0.255,0.893 0.383,1.873 0.383,2.939l0,1.422l-9.666,0c0.046,0.574 0.166,1.103 0.362,1.586c0.196,0.483 0.463,0.9 0.8,1.251c0.337,0.351 0.736,0.627 1.196,0.827c0.461,0.201 0.983,0.301 1.566,0.301c0.82,0 1.533,-0.164 2.14,-0.492c0.606,-0.328 1.132,-0.779 1.579,-1.354l1.791,1.709c-0.237,0.356 -0.531,0.7 -0.882,1.033c-0.351,0.332 -0.761,0.628 -1.231,0.888c-0.469,0.26 -1,0.47 -1.592,0.629c-0.593,0.16 -1.258,0.239 -1.997,0.239Zm-0.396,-12.673c-0.911,0 -1.647,0.319 -2.208,0.957c-0.561,0.638 -0.918,1.526 -1.073,2.666l6.33,0l0,-0.246c-0.028,-0.438 -0.098,-0.86 -0.212,-1.265c-0.114,-0.406 -0.289,-0.766 -0.526,-1.08c-0.237,-0.315 -0.545,-0.565 -0.923,-0.752c-0.379,-0.187 -0.841,-0.28 -1.388,-0.28Z" style="fill:#808080;fill-rule:nonzero;"/><path d="M127.986,32.399c-0.218,-0.036 -0.439,-0.064 -0.663,-0.082c-0.223,-0.018 -0.453,-0.027 -0.69,-0.027c-0.802,0 -1.454,0.155 -1.955,0.465c-0.502,0.31 -0.875,0.738 -1.121,1.285l0,10.117l-3.323,0l0,-14.793l3.172,0l0.082,1.654c0.374,-0.601 0.837,-1.073 1.388,-1.415c0.551,-0.342 1.201,-0.512 1.948,-0.512c0.192,0 0.408,0.02 0.65,0.061c0.241,0.041 0.417,0.084 0.526,0.13l-0.014,3.117Z" style="fill:#808080;fill-rule:nonzero;"/><path d="M4.136,57.768l0.279,1.918l0.41,-1.729l2.877,-10.15l1.619,0l2.807,10.15l0.4,1.759l0.31,-1.958l2.257,-9.951l1.929,0l-3.527,14.546l-1.748,0l-2.998,-10.6l-0.229,-1.109l-0.23,1.109l-3.107,10.6l-1.749,0l-3.516,-14.546l1.918,0l2.298,9.961Z" style="fill:#b2b2b2;fill-rule:nonzero;"/><path d="M23.038,62.553c-1.465,0 -2.658,-0.481 -3.577,-1.444c-0.919,-0.962 -1.378,-2.249 -1.378,-3.861l0,-0.34c0,-1.072 0.204,-2.029 0.614,-2.872c0.41,-0.843 0.982,-1.502 1.718,-1.978c0.736,-0.476 1.534,-0.714 2.393,-0.714c1.406,0 2.498,0.462 3.277,1.388c0.779,0.926 1.169,2.251 1.169,3.977l0,0.769l-7.323,0c0.026,1.065 0.338,1.926 0.934,2.582c0.596,0.656 1.354,0.984 2.273,0.984c0.653,0 1.205,-0.133 1.658,-0.399c0.453,-0.267 0.849,-0.62 1.189,-1.059l1.129,0.879c-0.906,1.392 -2.264,2.088 -4.076,2.088Zm-0.23,-9.691c-0.746,0 -1.372,0.272 -1.878,0.814c-0.506,0.543 -0.819,1.304 -0.939,2.283l5.415,0l0,-0.14c-0.054,-0.939 -0.307,-1.666 -0.76,-2.183c-0.452,-0.516 -1.065,-0.774 -1.838,-0.774Z" style="fill:#b2b2b2;fill-rule:nonzero;"/><path d="M38.543,57.068c0,1.652 -0.379,2.979 -1.139,3.981c-0.759,1.003 -1.778,1.504 -3.057,1.504c-1.365,0 -2.421,-0.483 -3.167,-1.449l-0.09,1.249l-1.698,0l0,-15.345l1.848,0l0,5.724c0.746,-0.926 1.775,-1.388 3.087,-1.388c1.312,0 2.343,0.496 3.092,1.488c0.75,0.993 1.124,2.351 1.124,4.076l0,0.16Zm-1.848,-0.21c0,-1.258 -0.243,-2.231 -0.729,-2.917c-0.486,-0.686 -1.186,-1.029 -2.098,-1.029c-1.219,0 -2.095,0.566 -2.628,1.698l0,4.676c0.566,1.132 1.449,1.698 2.648,1.698c0.886,0 1.575,-0.343 2.068,-1.029c0.493,-0.686 0.739,-1.718 0.739,-3.097Z" style="fill:#b2b2b2;fill-rule:nonzero;"/><path d="M40.422,56.858c0,-1.658 0.393,-2.992 1.179,-4.001c0.785,-1.009 1.815,-1.513 3.087,-1.513c1.265,0 2.268,0.432 3.007,1.298l0,-5.634l1.848,0l0,15.345l-1.698,0l-0.09,-1.159c-0.74,0.906 -1.769,1.359 -3.087,1.359c-1.252,0 -2.273,-0.513 -3.062,-1.539c-0.79,-1.025 -1.184,-2.364 -1.184,-4.016l0,-0.14Zm1.848,0.21c0,1.226 0.253,2.185 0.759,2.877c0.506,0.693 1.206,1.039 2.098,1.039c1.172,0 2.028,-0.526 2.568,-1.578l0,-4.965c-0.553,-1.019 -1.402,-1.529 -2.548,-1.529c-0.906,0 -1.612,0.35 -2.118,1.049c-0.506,0.699 -0.759,1.735 -0.759,3.107Z" style="fill:#b2b2b2;fill-rule:nonzero;"/><path d="M56.896,62.553c-1.465,0 -2.657,-0.481 -3.576,-1.444c-0.92,-0.962 -1.379,-2.249 -1.379,-3.861l0,-0.34c0,-1.072 0.205,-2.029 0.614,-2.872c0.41,-0.843 0.983,-1.502 1.719,-1.978c0.736,-0.476 1.533,-0.714 2.392,-0.714c1.406,0 2.498,0.462 3.277,1.388c0.78,0.926 1.169,2.251 1.169,3.977l0,0.769l-7.323,0c0.027,1.065 0.338,1.926 0.934,2.582c0.596,0.656 1.354,0.984 2.273,0.984c0.653,0 1.206,-0.133 1.659,-0.399c0.452,-0.267 0.849,-0.62 1.188,-1.059l1.129,0.879c-0.905,1.392 -2.264,2.088 -4.076,2.088Zm-0.23,-9.691c-0.746,0 -1.372,0.272 -1.878,0.814c-0.506,0.543 -0.819,1.304 -0.939,2.283l5.415,0l0,-0.14c-0.053,-0.939 -0.306,-1.666 -0.759,-2.183c-0.453,-0.516 -1.066,-0.774 -1.839,-0.774Z" style="fill:#b2b2b2;fill-rule:nonzero;"/><path d="M66.687,59.846l2.678,-8.303l1.888,0l-3.877,10.81l-1.408,0l-3.917,-10.81l1.889,0l2.747,8.303Z" style="fill:#b2b2b2;fill-rule:nonzero;"/><path d="M77.387,62.553c-1.465,0 -2.658,-0.481 -3.577,-1.444c-0.919,-0.962 -1.378,-2.249 -1.378,-3.861l0,-0.34c0,-1.072 0.204,-2.029 0.614,-2.872c0.41,-0.843 0.982,-1.502 1.718,-1.978c0.736,-0.476 1.534,-0.714 2.393,-0.714c1.406,0 2.498,0.462 3.277,1.388c0.779,0.926 1.169,2.251 1.169,3.977l0,0.769l-7.323,0c0.027,1.065 0.338,1.926 0.934,2.582c0.596,0.656 1.354,0.984 2.273,0.984c0.653,0 1.205,-0.133 1.658,-0.399c0.453,-0.267 0.85,-0.62 1.189,-1.059l1.129,0.879c-0.906,1.392 -2.264,2.088 -4.076,2.088Zm-0.23,-9.691c-0.746,0 -1.372,0.272 -1.878,0.814c-0.506,0.543 -0.819,1.304 -0.939,2.283l5.415,0l0,-0.14c-0.054,-0.939 -0.307,-1.666 -0.76,-2.183c-0.452,-0.516 -1.065,-0.774 -1.838,-0.774Z" style="fill:#b2b2b2;fill-rule:nonzero;"/><rect x="83.901" y="47.008" width="1.848" height="15.346" style="fill:#b2b2b2;fill-rule:nonzero;"/><path d="M88.217,56.848c0,-1.059 0.208,-2.011 0.624,-2.857c0.417,-0.846 0.996,-1.499 1.739,-1.958c0.742,-0.46 1.59,-0.689 2.542,-0.689c1.472,0 2.663,0.509 3.572,1.528c0.909,1.019 1.364,2.375 1.364,4.066l0,0.13c0,1.053 -0.202,1.997 -0.605,2.833c-0.403,0.835 -0.979,1.486 -1.728,1.953c-0.749,0.466 -1.61,0.699 -2.583,0.699c-1.465,0 -2.652,-0.51 -3.561,-1.529c-0.91,-1.019 -1.364,-2.367 -1.364,-4.046l0,-0.13Zm1.858,0.22c0,1.199 0.278,2.161 0.834,2.887c0.556,0.726 1.301,1.089 2.233,1.089c0.939,0 1.685,-0.368 2.238,-1.104c0.553,-0.736 0.829,-1.766 0.829,-3.092c0,-1.185 -0.281,-2.146 -0.844,-2.882c-0.563,-0.736 -1.31,-1.104 -2.243,-1.104c-0.912,0 -1.648,0.363 -2.208,1.089c-0.559,0.726 -0.839,1.765 -0.839,3.117Z" style="fill:#b2b2b2;fill-rule:nonzero;"/><path d="M109.507,57.068c0,1.645 -0.376,2.971 -1.129,3.976c-0.753,1.006 -1.772,1.509 -3.057,1.509c-1.312,0 -2.345,-0.416 -3.097,-1.249l0,5.205l-1.849,0l0,-14.966l1.689,0l0.09,1.199c0.752,-0.932 1.798,-1.398 3.137,-1.398c1.299,0 2.326,0.489 3.082,1.468c0.756,0.979 1.134,2.341 1.134,4.086l0,0.17Zm-1.848,-0.21c0,-1.218 -0.26,-2.181 -0.78,-2.887c-0.519,-0.706 -1.232,-1.059 -2.138,-1.059c-1.119,0 -1.958,0.496 -2.517,1.489l0,5.165c0.553,0.986 1.398,1.478 2.537,1.478c0.886,0 1.591,-0.351 2.113,-1.054c0.523,-0.702 0.785,-1.746 0.785,-3.132Z" style="fill:#b2b2b2;fill-rule:nonzero;"/><path d="M116.34,62.553c-1.465,0 -2.657,-0.481 -3.576,-1.444c-0.919,-0.962 -1.379,-2.249 -1.379,-3.861l0,-0.34c0,-1.072 0.205,-2.029 0.615,-2.872c0.409,-0.843 0.982,-1.502 1.718,-1.978c0.736,-0.476 1.533,-0.714 2.393,-0.714c1.405,0 2.497,0.462 3.277,1.388c0.779,0.926 1.169,2.251 1.169,3.977l0,0.769l-7.324,0c0.027,1.065 0.338,1.926 0.935,2.582c0.596,0.656 1.353,0.984 2.272,0.984c0.653,0 1.206,-0.133 1.659,-0.399c0.453,-0.267 0.849,-0.62 1.189,-1.059l1.129,0.879c-0.906,1.392 -2.265,2.088 -4.077,2.088Zm-0.229,-9.691c-0.746,0 -1.372,0.272 -1.879,0.814c-0.506,0.543 -0.819,1.304 -0.939,2.283l5.415,0l0,-0.14c-0.053,-0.939 -0.306,-1.666 -0.759,-2.183c-0.453,-0.516 -1.066,-0.774 -1.838,-0.774Z" style="fill:#b2b2b2;fill-rule:nonzero;"/><path d="M127.92,53.202c-0.28,-0.047 -0.583,-0.07 -0.91,-0.07c-1.212,0 -2.034,0.516 -2.467,1.548l0,7.673l-1.848,0l0,-10.81l1.798,0l0.03,1.249c0.606,-0.966 1.465,-1.448 2.577,-1.448c0.36,0 0.633,0.046 0.82,0.139l0,1.719Z" style="fill:#b2b2b2;fill-rule:nonzero;"/></svg>